# xmcd CD database file
#
# Track frame offsets:
#	150
#	27313
#	56128
#	92830
#	130003
#	150894
#	181336
#	194726
#
# Disc length: 2797 seconds
#
# Revision: 0
# Processed by: cddbd v1.5.2PL0 Copyright (c) Steve Scherf et al.
# Submitted via: CDex 1.51
#
DISCID=650aeb08
DTITLE=Marion Campos - Dreamers' walk
DYEAR=2003
DGENRE=Jazz
TTITLE0=La marche des rêveurs 1 Dreamers' walk 1
TTITLE1=Logan
TTITLE2=Kifangondo
TTITLE3=Vacarme
TTITLE4=Chicken coop
TTITLE5=Smarts bombs
TTITLE6=La marche des rêveurs 2 Dreamers' walk 2
TTITLE7=Tierra de sol y azucar (à Gibou et Francis)
EXTD=YEAR: 2003
EXTT0=
EXTT1=
EXTT2=
EXTT3=
EXTT4=
EXTT5=
EXTT6=
EXTT7=
PLAYORDER=
